<svg xmlns="http://www.w3.org/2000/svg" viewBox="0 0 16 16">
  <defs>
    <style>
      .ea2afb29-d9b5-4e11-bc43-40738ff33501 {
        fill: #99b4c0;
      }

      .b920b5e8-f716-4987-86d2-11169bd25dbd {
        fill: #130000;
      }

      .a78ef945-050c-43af-8755-fbffacbfb491 {
        fill: #00ffef;
      }

      .e0d2062c-daca-47e0-a82a-12aee8cf090e {
        fill: #2484a6;
      }

      .b1e3e00d-ea70-44ea-8d78-825ad5583878 {
        fill: #205475;
      }
    </style>
  </defs>
  <g id="e6fd1e5b-0026-400d-8cc4-e51dba0712b3" data-name="Layer 1">
    <path class="ea2afb29-d9b5-4e11-bc43-40738ff33501" d="M6,13a1.5,1.5,0,1,0-1.5-1.5A1.5,1.5,0,0,0,6,13Z"/>
    <path class="b920b5e8-f716-4987-86d2-11169bd25dbd" d="M16,8c0,3.15-1.87,2.59-3.57,2.07-1-.31-2-.6-2.43-.07-.6.68-.48,1.82-.35,2.92C9.83,14.49,10,16,8,16a8,8,0,1,1,8-8ZM8,15c.61,0,.65-.17.65-.18a2.2,2.2,0,0,0,.07-1.12c0-.16,0-.36-.06-.59a14.34,14.34,0,0,1-.11-1.46,3.32,3.32,0,0,1,.7-2.31,1.89,1.89,0,0,1,1.27-.62,4,4,0,0,1,1.16.1c.35.08.7.19,1,.29h0c.35.1.66.2,1,.26.65.15.9.09,1,0S15,9.16,15,8a7,7,0,1,0-7,7Z"/>
  </g>
  <g id="b98d0633-0a6f-412f-9cd5-fdf87e381bca" data-name="Layer 5">
    <circle class="a78ef945-050c-43af-8755-fbffacbfb491" cx="12" cy="6.5" r="1.5"/>
  </g>
  <g id="b0c5fc43-17fd-4f09-83a1-d69aa7092d22" data-name="Layer 3">
    <circle class="e0d2062c-daca-47e0-a82a-12aee8cf090e" cx="4" cy="7" r="1.5"/>
  </g>
  <g id="f4106105-93ba-4085-aee3-d020c5883e66" data-name="Layer 2">
    <circle class="b1e3e00d-ea70-44ea-8d78-825ad5583878" cx="8" cy="3.5" r="1.5"/>
  </g>
</svg>
