<svg xmlns="http://www.w3.org/2000/svg" viewBox="0 0 14 16">
  <defs>
    <style>
      .cls-1 {
        fill: #205475;
      }

      .cls-1, .cls-2 {
        fill-rule: evenodd;
      }

      .cls-2 {
        fill: #2484a6;
      }
    </style>
  </defs>
  <g id="Layer_1" data-name="Layer 1">
    <path class="cls-1" d="M1.6,11.85H0v4H.79V14.51h.8a1.45,1.45,0,0,0,.74-.18,1.16,1.16,0,0,0,.46-.47A1.45,1.45,0,0,0,3,13.18a1.35,1.35,0,0,0-.16-.67A1.12,1.12,0,0,0,2.33,12,1.39,1.39,0,0,0,1.6,11.85Zm.54,1.33a.71.71,0,0,1-.08.38.51.51,0,0,1-.24.24.78.78,0,0,1-.37.09H.79V12.48h.66a.69.69,0,0,1,.51.18A.71.71,0,0,1,2.14,13.18Zm1.22-1.33v4H4.82a1.9,1.9,0,0,0,1-.24,1.37,1.37,0,0,0,.59-.69,2.54,2.54,0,0,0,.2-1.08,2.54,2.54,0,0,0-.2-1.08,1.42,1.42,0,0,0-.58-.68,2,2,0,0,0-1-.23Zm.79.65h.57a1.15,1.15,0,0,1,.61.15.88.88,0,0,1,.35.45,2,2,0,0,1,.12.75,2.46,2.46,0,0,1-.07.6,1.16,1.16,0,0,1-.2.42.75.75,0,0,1-.33.25,1.16,1.16,0,0,1-.48.08H4.15ZM7.9,14.26v1.59H7.11v-4H9.65v.65H7.9v1.12H9.5v.64Z"/>
  </g>
  <g id="Layer_2" data-name="Layer 2">
    <path class="cls-2" d="M14,4.5V14a2,2,0,0,1-2,2H11V15h1a1,1,0,0,0,1-1V4.5H11A1.5,1.5,0,0,1,9.5,3V1H4A1,1,0,0,0,3,2v9H2V2A2,2,0,0,1,4,0H9.5Z"/>
  </g>
</svg>
