<svg xmlns="http://www.w3.org/2000/svg" viewBox="0 0 14 16">
  <defs>
    <style>
      .cls-1 {
        fill: #205475;
      }

      .cls-1, .cls-2 {
        fill-rule: evenodd;
      }

      .cls-2 {
        fill: #2484a6;
      }
    </style>
  </defs>
  <g id="Layer_1" data-name="Layer 1">
    <path class="cls-1" d="M9.66,12.63a1.38,1.38,0,0,1,.14.49H9a.7.7,0,0,0-.09-.24.79.79,0,0,0-.17-.19.7.7,0,0,0-.24-.13.78.78,0,0,0-.3,0,.79.79,0,0,0-.66.3,1.32,1.32,0,0,0-.24.85v.5a1.66,1.66,0,0,0,.1.61.88.88,0,0,0,.3.41.83.83,0,0,0,.52.15,1,1,0,0,0,.46-.1A.68.68,0,0,0,9,15a.74.74,0,0,0,.09-.36v-.26H8.24v-.59H9.82v.8a1.68,1.68,0,0,1-.1.55,1.38,1.38,0,0,1-.29.46,1.36,1.36,0,0,1-.5.31,2.1,2.1,0,0,1-.7.11,2,2,0,0,1-.75-.13A1.33,1.33,0,0,1,7,15.49a1.44,1.44,0,0,1-.32-.58,2.65,2.65,0,0,1-.11-.74v-.51a2.18,2.18,0,0,1,.2-.95,1.54,1.54,0,0,1,.58-.63,1.83,1.83,0,0,1,.93-.23,1.83,1.83,0,0,1,.64.1,1.64,1.64,0,0,1,.48.28,1.35,1.35,0,0,1,.31.4ZM0,14.79a1.39,1.39,0,0,0,.08.46,1.28,1.28,0,0,0,.24.39,1.46,1.46,0,0,0,.41.27A1.7,1.7,0,0,0,1.3,16a1.37,1.37,0,0,0,1-.34,1.38,1.38,0,0,0,.35-1V11.93H1.85v2.74a.68.68,0,0,1-.14.47.51.51,0,0,1-.42.16.48.48,0,0,1-.45-.25.5.5,0,0,1-.07-.27H0Zm4.92-2.86H3.32v4h.79V14.58h.81a1.41,1.41,0,0,0,.73-.17,1.16,1.16,0,0,0,.46-.47,1.42,1.42,0,0,0,.16-.68,1.39,1.39,0,0,0-.16-.68,1.18,1.18,0,0,0-.46-.48,1.39,1.39,0,0,0-.73-.17Zm.55,1.33a.85.85,0,0,1-.09.38.56.56,0,0,1-.24.24.67.67,0,0,1-.37.08H4.11v-1.4h.66a.69.69,0,0,1,.51.18.67.67,0,0,1,.19.52Z"/>
  </g>
  <g id="Layer_2" data-name="Layer 2">
    <path class="cls-2" d="M14,4.5V14a2,2,0,0,1-2,2H11V15h1a1,1,0,0,0,1-1V4.5H11A1.5,1.5,0,0,1,9.5,3V1H4A1,1,0,0,0,3,2v9H2V2A2,2,0,0,1,4,0H9.5Z"/>
  </g>
</svg>
